<svg width="17" height="17" viewBox="0 0 17 17" fill="none" xmlns="http://www.w3.org/2000/svg">
<path d="M9.80973 10.3658C10.4482 12.2577 10.8774 14.2138 11.0897 16.1992C10.2032 16.5093 9.27062 16.6674 8.3314 16.6667C6.67906 16.6694 5.06358 16.1784 3.69223 15.2567C4.33131 14.0725 5.20223 13.0292 6.25309 12.1888C7.30395 11.3484 8.51324 10.7281 9.8089 10.365L9.80973 10.3658ZM16.3089 10.7517C15.7141 12.707 14.4229 14.3763 12.6797 15.4433C12.4457 13.6122 12.0383 11.8075 11.4631 10.0533C13.1112 9.8831 14.7759 10.123 16.3089 10.7517ZM8.45223 7.07084C8.72945 7.63639 8.98778 8.21222 9.22723 8.79834C6.34091 9.64391 3.89147 11.5693 2.38806 14.1742C1.54316 13.3083 0.895244 12.2702 0.488646 11.1308C0.0820478 9.99141 -0.0736417 8.77763 0.032228 7.5725C2.81806 8.1625 5.75723 7.99084 8.45223 7.07084ZM14.7647 3.03667C16.153 4.73224 16.823 6.90363 16.6314 9.08667C14.7982 8.39687 12.8216 8.17629 10.8814 8.445C10.6134 7.76815 10.3201 7.10158 10.0022 6.44667C11.788 5.61609 13.4031 4.45964 14.7647 3.03667ZM4.38639 0.991669C5.63217 2.40384 6.72959 3.94024 7.6614 5.57667C5.29623 6.32992 2.77553 6.45343 0.348061 5.935C0.987194 3.81787 2.43932 2.04032 4.38639 0.991669ZM8.3314 2.38516e-06C10.3214 2.38516e-06 12.1489 0.697503 13.5814 1.86167C12.3415 3.16328 10.8653 4.21703 9.2314 4.96667C8.31175 3.31962 7.23448 1.76567 6.01473 0.326669C6.76775 0.109382 7.54765 -0.000590584 8.3314 2.38516e-06Z" fill="#333333"/>
</svg>
